<svg id="Layer_1" data-name="Layer 1" xmlns="http://www.w3.org/2000/svg" viewBox="0 0 1000 1000"><title>4058-House Cleaning</title><path d="M500,395.1a16,16,0,0,1-14-8.33l-26.82-49-49-26.82a16,16,0,0,1,0-28.08l49-26.82L486,207A16,16,0,0,1,514,207l26.82,49,49,26.82a16,16,0,0,1,0,28.08l-49,26.82-26.82,49A16,16,0,0,1,500,395.1Zm-48.87-98.22,27.48,15a16.08,16.08,0,0,1,6.36,6.36l15,27.48,15-27.48a16.08,16.08,0,0,1,6.36-6.36l27.48-15-27.48-15a16.08,16.08,0,0,1-6.36-6.36L500,248l-15,27.48a16.08,16.08,0,0,1-6.36,6.36Z"/><path d="M267,246a16,16,0,0,1-14-8.32l-20.73-37.91L194.33,179a16,16,0,0,1,0-28.07l37.92-20.74L253,92.32a16,16,0,0,1,28.08,0l20.73,37.91L339.7,151a16,16,0,0,1,0,28.07l-37.91,20.74-20.73,37.91A16,16,0,0,1,267,246Zm-31.66-81L251.71,174a16,16,0,0,1,6.36,6.36L267,196.67,276,180.31a16.08,16.08,0,0,1,6.36-6.36L298.68,165l-16.36-8.95A16,16,0,0,1,276,149.7L267,133.34l-8.95,16.36a16,16,0,0,1-6.36,6.36Z"/><path d="M733,246a16,16,0,0,1-14-8.32l-20.73-37.91L660.3,179a16,16,0,0,1,0-28.07l37.91-20.74,20.73-37.91a16,16,0,0,1,28.08,0l20.73,37.91L805.67,151a16,16,0,0,1,0,28.07l-37.92,20.74L747,237.69A16,16,0,0,1,733,246Zm-31.66-81L717.68,174a16.08,16.08,0,0,1,6.36,6.36L733,196.67l8.95-16.36a16,16,0,0,1,6.36-6.36L764.64,165l-16.35-8.95a16,16,0,0,1-6.36-6.36L733,133.34,724,149.7a16,16,0,0,1-6.36,6.36Z"/><path d="M432.52,887.94a16,16,0,0,1-14-8.33L397.74,841.7,359.83,821a16,16,0,0,1,0-28.08l37.91-20.73,20.74-37.91a16,16,0,0,1,14-8.33h0a16,16,0,0,1,14,8.33l20.74,37.91,37.91,20.73a16,16,0,0,1,0,28.08L467.29,841.7l-20.74,37.91A16,16,0,0,1,432.52,887.94Zm-31.67-81,16.36,9a16,16,0,0,1,6.36,6.36l8.95,16.35,8.94-16.35a16,16,0,0,1,6.36-6.36l16.36-9L447.82,798a16,16,0,0,1-6.36-6.36l-8.94-16.35-8.95,16.35a16,16,0,0,1-6.36,6.36Z"/><path d="M317.5,562.93a16,16,0,0,1-14-8.32L282.73,516.7,244.82,496a16,16,0,0,1,0-28.07l37.91-20.74,20.73-37.91a16,16,0,0,1,28.08,0l20.73,37.91,37.92,20.74a16,16,0,0,1,0,28.07L352.27,516.7l-20.73,37.91A16,16,0,0,1,317.5,562.93Zm-31.66-81,16.36,8.94a16.08,16.08,0,0,1,6.36,6.36l8.94,16.36,8.95-16.36a16,16,0,0,1,6.36-6.36l16.35-8.94L332.81,473a16,16,0,0,1-6.36-6.36l-8.95-16.36-8.94,16.36A16,16,0,0,1,302.2,473Z"/><path d="M682.5,562.93a16,16,0,0,1-14-8.32L647.73,516.7,609.81,496a16,16,0,0,1,0-28.07l37.92-20.74,20.73-37.91a16,16,0,0,1,28.08,0l20.73,37.91,37.91,20.74a16,16,0,0,1,0,28.07L717.27,516.7l-20.73,37.91A16,16,0,0,1,682.5,562.93Zm-31.66-81,16.35,8.94a16,16,0,0,1,6.36,6.36l9,16.36,8.94-16.36a16.08,16.08,0,0,1,6.36-6.36l16.36-8.94L697.8,473a16,16,0,0,1-6.36-6.36l-8.94-16.36-9,16.36a16,16,0,0,1-6.36,6.36Z"/><path d="M815.74,427a16,16,0,0,1-16-16h0a16,16,0,1,1,16,16Z"/><path d="M791.34,916H208.66c-23.29,0-42.24-22-42.24-49.08v-384a16,16,0,0,1,32,0v384c0,9.78,5.41,17.08,10.24,17.08H791.34c4.83,0,10.24-7.3,10.24-17.08v-384a16,16,0,0,1,32,0v384C833.58,894,814.63,916,791.34,916Z"/><path d="M567.48,916h-135a16,16,0,0,1-16-16V871.94a16,16,0,0,1,32,0V884h103V581.89h-103v160a16,16,0,1,1-32,0v-176a16,16,0,0,1,16-16h135a16,16,0,0,1,16,16V900A16,16,0,0,1,567.48,916Z"/><path d="M619.28,498.9H380.72a16,16,0,0,1,0-32H619.28a16,16,0,0,1,0,32Z"/><path d="M891.36,498.9H745.72a16,16,0,0,1,0-32H851.31l-46.6-44.29L500,132.93l-351.31,334H254.28a16,16,0,0,1,0,32H108.64a16,16,0,0,1-11-27.59L489,99.26a16,16,0,0,1,22,0L826.76,399.41l75.63,71.9a16,16,0,0,1-11,27.59Z"/><path d="M370.76,772.46h-130a16,16,0,0,1-16-16v-130a16,16,0,0,1,16-16h130a16,16,0,0,1,16,16v130A16,16,0,0,1,370.76,772.46Zm-114-32h98v-98h-98Z"/><path d="M759.25,772.46h-130a16,16,0,0,1-16-16v-130a16,16,0,0,1,16-16h130a16,16,0,0,1,16,16v130A16,16,0,0,1,759.25,772.46Zm-114-32h98v-98h-98Z"/></svg>